<svg id="Layer_1" height="512" viewBox="0 0 128 128" width="512" xmlns="http://www.w3.org/2000/svg" data-name="Layer 1"><circle cx="46.792" cy="19.865" fill="#e8e8e8" r="4.03"/><circle cx="92.277" cy="108.135" fill="#e8e8e8" r="4.03"/><circle cx="22.53" cy="62.048" fill="#e8e8e8" r="4.03"/><ellipse cx="64" cy="64" fill="#7d6599" rx="38.994" ry="17.932" transform="matrix(.707 -.707 .707 .707 -26.51 64)"/><ellipse cx="64" cy="64" fill="#67537e" rx="15.203" ry="6.991" transform="matrix(.707 -.707 .707 .707 -26.51 64)"/><circle cx="12.5" cy="19.865" fill="#e8e8e8" r="6"/><circle cx="115.5" cy="72.078" fill="#e8e8e8" r="6"/><g fill="#7d6599"><path d="m63.283 45.25a1.751 1.751 0 0 1 -1.012-3.18c10.143-7.163 42.062-24.713 55.18-17.918 3.848 1.994 5.8 5.727 5.8 11.1a1.75 1.75 0 0 1 -3.5 0c0-4.014-1.278-6.628-3.908-7.99-10.194-5.284-38.543 8.48-51.552 17.668a1.746 1.746 0 0 1 -1.008.32z"/><path d="m17.972 105.383a16.109 16.109 0 0 1 -7.423-1.535c-3.848-1.994-5.8-5.727-5.8-11.1a1.75 1.75 0 0 1 3.5 0c0 4.014 1.278 6.628 3.908 7.99 10.19 5.279 38.543-8.482 51.551-17.67a1.751 1.751 0 0 1 2.02 2.86c-8.547 6.038-32.563 19.455-47.756 19.455z"/><path d="m64 105.558a1.75 1.75 0 0 1 -1.132-3.086c26.896-22.772 31.146-49.308 27.441-61.592a1.75 1.75 0 1 1 3.351-1.01c3.417 11.329 1.852 39.553-28.529 65.274a1.746 1.746 0 0 1 -1.131.414z"/><path d="m36.015 89.375a1.749 1.749 0 0 1 -1.675-1.245c-3.417-11.33-1.852-39.553 28.529-65.274a1.75 1.75 0 0 1 2.262 2.672c-26.895 22.772-31.145 49.308-27.44 61.592a1.748 1.748 0 0 1 -1.676 2.255z"/></g></svg>